<?xml version="1.0" encoding="utf-8"?>
<!-- Generator: Adobe Illustrator 24.0.3, SVG Export Plug-In . SVG Version: 6.00 Build 0)  -->
<svg version="1.1" id="Layer_1" xmlns="http://www.w3.org/2000/svg" xmlns:xlink="http://www.w3.org/1999/xlink" x="0px" y="0px"
	 viewBox="0 0 300 300" style="enable-background:new 0 0 300 300;" xml:space="preserve">
<g>
	<style>
		.qm64_svg_logo_path {
			fill: #000;
		}
	</style>
	<path class="qm64_svg_logo_path" d="M210.67,158.24c0,10.68-8.65,19.33-19.33,19.33c-10.68,0-19.33-8.65-19.33-19.33c0-3.69,1.03-7.13,2.82-10.06l0.02-0.06
		l15.89-25.58l8.31-0.05l-10.18,16.58c0,0,0,0,0,0l-7.72,12.52c-0.12,0.18-0.23,0.36-0.33,0.54l-0.06,0.09l0,0.01
		c-1.01,1.77-1.59,3.82-1.59,6.01c0,6.72,5.44,12.16,12.16,12.16c6.72,0,12.16-5.44,12.16-12.16c0-6.17-4.6-11.27-10.56-12.05
		l3.94-6.46C204.85,142.11,210.67,149.5,210.67,158.24z M239.27,122.52l-23.26,37.6v5.26h19.93v-7.15h-10.23l17.41-28.55v27.91v0.64
		v7.15v0.73v11.47h7.18v-55.06H239.27z M166.98,153.35c0-8.73-7.08-15.81-15.81-15.81c-4.93,0-9.33,2.26-12.23,5.79
		c-2.9-3.54-7.3-5.79-12.23-5.79c-8.73,0-15.81,7.08-15.81,15.81v24.22h7.16v-24.22c0-4.78,3.87-8.65,8.65-8.65s8.65,3.87,8.65,8.65
		v24.22h7.16v-24.22c0-4.78,3.87-8.65,8.65-8.65c4.78,0,8.65,3.87,8.65,8.65h0v24.22h7.16L166.98,153.35L166.98,153.35z
		 M104.84,150.03c0-15.21-12.33-27.54-27.54-27.54c-15.21,0-27.54,12.33-27.54,27.54c0,15.21,12.33,27.54,27.54,27.54
		c3.66,0,7.14-0.72,10.34-2.01l-5.66-5.66c-1.5,0.35-3.06,0.54-4.67,0.54c-11.27,0-20.41-9.14-20.41-20.41s9.14-20.41,20.41-20.41
		c11.27,0,20.41,9.14,20.41,20.41c0,6.93-3.46,13.05-8.74,16.74l5.1,5.1c0,0,0,0,0,0l5.7,5.7l5.06-5.06l-5.7-5.7
		C102.71,162.16,104.84,156.35,104.84,150.03z M264.62,184.73v-76.55h-7.16v0H77.3v0.01c0,0,0,0-0.01,0
		c-23.11,0-41.85,18.74-41.85,41.85s18.74,41.85,41.85,41.85c0,0,0,0,0.01,0v0h187.31V184.73H100.71c0.02-0.01,0.04-0.03,0.05-0.04
		H78.92c-0.41,0.02-0.82,0.03-1.23,0.04H77.3v0c0,0,0,0-0.01,0c-19.16,0-34.7-15.53-34.7-34.7c0-19.16,15.53-34.7,34.7-34.7h23.41
		c0,0-0.01-0.01-0.01-0.01h156.77v69.4H264.62z"/>
</g>
</svg>
